<svg xmlns="http://www.w3.org/2000/svg" viewBox="0 0 128 128" width="128" height="128">
  <defs>
    <linearGradient id="bgGrad" x1="0%" y1="0%" x2="100%" y2="100%">
      <stop offset="0%" stop-color="#0a0f18"/>
      <stop offset="50%" stop-color="#0f172a"/>
      <stop offset="100%" stop-color="#090d15"/>
    </linearGradient>
    <linearGradient id="pGrad" x1="0%" y1="0%" x2="100%" y2="100%">
      <stop offset="0%" stop-color="#34d399"/>
      <stop offset="50%" stop-color="#10b981"/>
      <stop offset="100%" stop-color="#06b6d4"/>
    </linearGradient>
    <linearGradient id="accentGrad" x1="0%" y1="100%" x2="100%" y2="0%">
      <stop offset="0%" stop-color="#06b6d4"/>
      <stop offset="100%" stop-color="#38bdf8"/>
    </linearGradient>
  </defs>

  <rect x="4" y="4" width="120" height="120" rx="28" fill="url(#bgGrad)" stroke="#1e293b" stroke-width="2"/>
  <rect x="6" y="6" width="116" height="116" rx="26" fill="none" stroke="rgba(52, 211, 153, 0.25)" stroke-width="2"/>

  <g transform="translate(4, 0)">
    <rect x="32" y="28" width="15" height="72" rx="7.5" fill="url(#pGrad)"/>
    <path d="M 47 28 L 72 28 C 88 28 98 38 98 52 C 98 66 88 76 72 76 L 47 76" 
          fill="none" 
          stroke="url(#pGrad)" 
          stroke-width="14" 
          stroke-linecap="round" 
          stroke-linejoin="round"/>
    <path d="M 47 44 L 68 44 C 74 44 80 48 80 52 C 80 56 74 60 68 60 L 47 60" 
          fill="none" 
          stroke="url(#accentGrad)" 
          stroke-width="4" 
          stroke-linecap="round" 
          opacity="0.95"/>
    <circle cx="68" cy="52" r="5" fill="#38bdf8"/>
    <circle cx="68" cy="52" r="2.5" fill="#ffffff"/>
  </g>
</svg>
